<svg width="77" height="78" viewBox="0 0 77 78" fill="none" xmlns="http://www.w3.org/2000/svg">
<path fill-rule="evenodd" clip-rule="evenodd" d="M76.4529 0.938447C76.5146 1.01515 76.5582 1.08282 76.6063 1.16403C76.8364 1.5355 77.0003 1.94457 77.0003 2.40627V64.9694C77.0003 65.4326 76.8379 65.8416 76.6063 66.2116L76.6015 66.219C76.551 66.297 76.5083 66.3629 76.4529 66.4372C76.1882 66.7786 75.8559 67.0478 75.4468 67.2072C75.4393 67.2095 75.4333 67.2155 75.4272 67.2215C75.4212 67.2275 75.4152 67.2335 75.4077 67.2358C75.1385 67.3275 74.8678 67.3756 74.5941 67.3756C74.2421 67.3756 73.9158 67.2929 73.612 67.1636C73.5712 67.144 73.5351 67.1158 73.4985 67.0871C73.4704 67.065 73.4418 67.0427 73.4105 67.0237C73.1894 66.8989 72.9819 66.75 72.8134 66.562C72.8007 66.5461 72.7854 66.5361 72.7709 66.5266C72.7581 66.5182 72.7459 66.5102 72.7367 66.4989C65.2337 57.3896 54.7709 51.3017 43.3125 49.0684V18.3117C54.7709 16.0784 65.2337 9.98603 72.7367 0.875282C72.7465 0.865506 72.7585 0.859491 72.7706 0.853475C72.7826 0.847459 72.7946 0.841444 72.8044 0.831668C73.0886 0.514341 73.4451 0.284241 73.8586 0.148888C73.9156 0.131138 73.9703 0.122673 74.0255 0.114121C74.0592 0.108906 74.0931 0.103657 74.1278 0.0962509C74.18 0.0853188 74.2307 0.071103 74.2811 0.0569669C74.3833 0.0283198 74.4843 0 74.5941 0C74.8101 0 75.0068 0.0581925 75.2014 0.115799C75.2236 0.122353 75.2457 0.1289 75.2678 0.135353C75.2914 0.141989 75.3139 0.139587 75.3364 0.137187C75.3598 0.134692 75.3832 0.132199 75.4077 0.139865C75.4152 0.142121 75.4212 0.148136 75.4272 0.154152C75.4333 0.160168 75.4393 0.166183 75.4468 0.168439C75.8559 0.327855 76.1882 0.601568 76.4529 0.938447ZM9.62509 21.6566C9.62509 20.3286 10.7034 19.2503 12.0314 19.2503H36.0084C36.5376 19.2265 37.0608 19.1656 37.5845 19.1045C37.8897 19.069 38.1951 19.0334 38.5019 19.0051V48.3707C38.1979 48.3424 37.8948 48.307 37.5917 48.2715C37.073 48.2109 36.5545 48.1502 36.0324 48.1256H29.6408L37.7168 64.2822C38.6598 66.0673 38.3079 68.3728 36.831 69.8497L31.0515 75.5811C30.1747 76.4955 28.952 77.0054 27.6676 77.0054C27.3503 77.0054 27.027 76.9723 26.7051 76.9046C25.0794 76.5782 23.7559 75.4563 23.1634 73.9118L13.4902 48.1256H12.0314C10.7034 48.1256 9.62509 47.0472 9.62509 45.7193V43.313H2.40627C1.07831 43.313 0 42.2347 0 40.9067V26.4691C0 25.1411 1.07831 24.0628 2.40627 24.0628H9.62509V21.6566Z" fill="#5A5F64"/>
</svg>
